<svg version="1.1" xmlns="http://www.w3.org/2000/svg" xmlns:xlink="http://www.w3.org/1999/xlink" width="27.06125" height="54.4461" viewBox="0,0,27.06125,54.4461"><g transform="translate(-305.56944,-150.59338)"><g data-paper-data="{&quot;isPaintingLayer&quot;:true}" fill-rule="nonzero" stroke="none" stroke-linecap="butt" stroke-linejoin="miter" stroke-miterlimit="10" stroke-dasharray="" stroke-dashoffset="0" style="mix-blend-mode: normal"><path d="M328.08866,180.14567c-2.46679,3.22997 -5.58083,4.50396 -6.08806,7.83692c-0.74842,4.91776 0.32219,10.77244 -5.40288,10.77244c-5.87104,0 -6.88378,-2.56436 -7.14608,-6.61495c-0.16683,-2.57627 0.00307,-5.602 1.86646,-10.13101c0.05626,-0.13674 3.10668,-2.1136 4.91304,-5.05646c0.48782,-0.79474 0.51772,-1.9252 0.59677,-2.72855c0.29866,-3.0352 -4.89726,-1.56303 -5.03832,-1.59878c-4.54589,-1.15192 -5.9424,-0.76658 -6.21298,-5.3252c-0.24345,-4.10152 5.7576,-6.69546 11.95281,-6.69546c4.67871,0 8.34626,1.44712 10.66901,4.67615c2.44575,3.40002 3.64354,9.95039 -0.10977,14.8649z" fill="#6ddce8" stroke-width="0"/><text transform="translate(309.48382,195.28576) scale(0.87347,0.87347)" font-size="40" xml:space="preserve" fill="#ff0000" fill-rule="nonzero" stroke="none" stroke-width="1" stroke-linecap="butt" stroke-linejoin="miter" stroke-miterlimit="10" stroke-dasharray="" stroke-dashoffset="0" font-family="Pixel" font-weight="normal" text-anchor="start" style="mix-blend-mode: normal"><tspan x="0" dy="0">?</tspan></text></g></g></svg>